HIERARCHY
ROOT hip
{
  OFFSET 0 0 0
  CHANNELS 6 Xposition Yposition Zposition Zrotation Yrotation Xrotation
  JOINT abdomen
  {
    OFFSET 0 20.6881 -0.73152
    CHANNELS 3 Zrotation Xrotation Yrotation
    JOINT chest
    {
      OFFSET 0 11.7043 -0.48768
      CHANNELS 3 Zrotation Xrotation Yrotation
      JOINT neck
      {
        OFFSET 0 22.1894 -2.19456
        CHANNELS 3 Zrotation Xrotation Yrotation
        JOINT head
        {
          OFFSET -0.24384 7.07133 1.2192
          CHANNELS 3 Zrotation Xrotation Yrotation
          JOINT leftEye
          {
            OFFSET 4.14528 8.04674 8.04672
            CHANNELS 3 Zrotation Xrotation Yrotation
            End Site
            {
              OFFSET 1 0 0
            }
          }
          JOINT rightEye
          {
            OFFSET -3.6576 8.04674 8.04672
            CHANNELS 3 Zrotation Xrotation Yrotation
            End Site
            {
              OFFSET 1 0 0
            }
          }
        }
      }
      JOINT rCollar
      {
        OFFSET -2.68224 19.2634 -4.8768
        CHANNELS 3 Zrotation Xrotation Yrotation
        JOINT rShldr
        {
          OFFSET -8.77824 -1.95073 1.46304
          CHANNELS 3 Zrotation Xrotation Yrotation
          JOINT rForeArm
          {
            OFFSET -28.1742 -1.7115 0.48768
            CHANNELS 3 Zrotation Xrotation Yrotation
            JOINT rHand
            {
              OFFSET -22.5879 0.773209 7.07136
              CHANNELS 3 Zrotation Xrotation Yrotation
              JOINT rThumb1
              {
                OFFSET -1.2192 -0.487915 3.41376
                CHANNELS 3 Zrotation Xrotation Yrotation
                JOINT rThumb2
                {
                  OFFSET -3.37035 -0.52449 3.41376
                  CHANNELS 3 Zrotation Xrotation Yrotation
                  End Site
                  {
                    OFFSET -1.78271 -1.18214 1.43049
                  }
                }
              }
              JOINT rIndex1
              {
                OFFSET -7.75947 0.938293 5.60832
                CHANNELS 3 Zrotation Xrotation Yrotation
                JOINT rIndex2
                {
                  OFFSET -2.54057 -0.884171 1.56538
                  CHANNELS 3 Zrotation Xrotation Yrotation
                  End Site
                  {
                    OFFSET -1.62519 -0.234802 1.16502
                  }
                }
              }
              JOINT rMid1
              {
                OFFSET -8.24714 1.18213 3.41376
                CHANNELS 3 Zrotation Xrotation Yrotation
                JOINT rMid2
                {
                  OFFSET -3.10165 -0.590103 1.0647
                  CHANNELS 3 Zrotation Xrotation Yrotation
                  End Site
                  {
                    OFFSET -2.48547 -0.328903 0.83742
                  }
                }
              }
              JOINT rRing1
              {
                OFFSET -8.82822 0.546677 1.51678
                CHANNELS 3 Zrotation Xrotation Yrotation
                JOINT rRing2
                {
                  OFFSET -2.60934 -0.819778 -0.0198488
                  CHANNELS 3 Zrotation Xrotation Yrotation
                  End Site
                  {
                    OFFSET -2.33842 -0.294052 0.168128
                  }
                }
              }
              JOINT rPinky1
              {
                OFFSET -8.27202 -0.0477905 -0.4584
                CHANNELS 3 Zrotation Xrotation Yrotation
                JOINT rPinky2
                {
                  OFFSET -1.82734 -0.647385 -0.700984
                  CHANNELS 3 Zrotation Xrotation Yrotation
                  End Site
                  {
                    OFFSET -1.69225 -0.51767 -0.607171
                  }
                }
              }
            }
          }
        }
      }
      JOINT lCollar
      {
        OFFSET 2.68224 19.2634 -4.8768
        CHANNELS 3 Zrotation Xrotation Yrotation
        JOINT lShldr
        {
          OFFSET 8.77824 -1.95073 1.46304
          CHANNELS 3 Zrotation Xrotation Yrotation
          JOINT lForeArm
          {
            OFFSET 28.1742 -1.7115 0.48768
            CHANNELS 3 Zrotation Xrotation Yrotation
            JOINT lHand
            {
              OFFSET 22.5879 0.773209 7.07136
              CHANNELS 3 Zrotation Xrotation Yrotation
              JOINT lThumb1
              {
                OFFSET 1.2192 -0.487915 3.41376
                CHANNELS 3 Zrotation Xrotation Yrotation
                JOINT lThumb2
                {
                  OFFSET 3.37035 -0.52449 3.41376
                  CHANNELS 3 Zrotation Xrotation Yrotation
                  End Site
                  {
                    OFFSET 1.78271 -1.18214 1.43049
                  }
                }
              }
              JOINT lIndex1
              {
                OFFSET 7.75947 0.938293 5.60832
                CHANNELS 3 Zrotation Xrotation Yrotation
                JOINT lIndex2
                {
                  OFFSET 2.54057 -0.884171 1.56538
                  CHANNELS 3 Zrotation Xrotation Yrotation
                  End Site
                  {
                    OFFSET 1.62519 -0.234802 1.16502
                  }
                }
              }
              JOINT lMid1
              {
                OFFSET 8.24714 1.18213 3.41376
                CHANNELS 3 Zrotation Xrotation Yrotation
                JOINT lMid2
                {
                  OFFSET 3.10165 -0.590103 1.0647
                  CHANNELS 3 Zrotation Xrotation Yrotation
                  End Site
                  {
                    OFFSET 2.48547 -0.328903 0.83742
                  }
                }
              }
              JOINT lRing1
              {
                OFFSET 8.82822 0.546677 1.51678
                CHANNELS 3 Zrotation Xrotation Yrotation
                JOINT lRing2
                {
                  OFFSET 2.60934 -0.819778 -0.0198488
                  CHANNELS 3 Zrotation Xrotation Yrotation
                  End Site
                  {
                    OFFSET 2.33842 -0.294052 0.168128
                  }
                }
              }
              JOINT lPinky1
              {
                OFFSET 8.27202 -0.0477905 -0.4584
                CHANNELS 3 Zrotation Xrotation Yrotation
                JOINT lPinky2
                {
                  OFFSET 1.82734 -0.647385 -0.700984
                  CHANNELS 3 Zrotation Xrotation Yrotation
                  End Site
                  {
                    OFFSET 1.69225 -0.51767 -0.607171
                  }
                }
              }
            }
          }
        }
      }
    }
  }
  JOINT rButtock
  {
    OFFSET -8.77824 4.35084 1.2192
    CHANNELS 3 Zrotation Xrotation Yrotation
    JOINT rThigh
    {
      OFFSET 0 -1.70687 -2.19456
      CHANNELS 3 Zrotation Xrotation Yrotation
      JOINT rShin
      {
        OFFSET 0 -36.8199 0.73152
        CHANNELS 3 Zrotation Xrotation Yrotation
        JOINT rFoot
        {
          OFFSET 0.73152 -45.1104 -5.12064
          CHANNELS 3 Zrotation Xrotation Yrotation
          End Site
          {
            OFFSET -1.1221 -3.69964 12.103
          }
        }
      }
    }
  }
  JOINT lButtock
  {
    OFFSET 8.77824 4.35084 1.2192
    CHANNELS 3 Zrotation Xrotation Yrotation
    JOINT lThigh
    {
      OFFSET 0 -1.70687 -2.19456
      CHANNELS 3 Zrotation Xrotation Yrotation
      JOINT lShin
      {
        OFFSET 0 -36.8199 0.73152
        CHANNELS 3 Zrotation Xrotation Yrotation
        JOINT lFoot
        {
          OFFSET -0.73152 -45.1104 -5.12064
          CHANNELS 3 Zrotation Xrotation Yrotation
          End Site
          {
            OFFSET 1.1221 -3.69964 12.103
          }
        }
      }
    }
  }
}
MOTION
Frames:	5
Frame Time:	0.03333
-17.2745 80.6742 -207.945 -8.9497 -17.619300000000003 6.9066 4.01108 5.96315 5.294849999999999 1.16843 -6.01034 1.55394 -8.02825 18.122599999999995 -12.1078 13.2378 -19.7921 -21.561799999999998 -0.0 0.0 0.0 -0.0 0.0 0.0 -2.0662800000000004e-14 4.94214e-14 -1.2855500000000003e-13 74.0893 31.276700000000005 0.21979 -9.98395 -4.1313 17.7717 -0.13798 10.5272 1.49656 1.2823e-09 -7.05386e-10 2.15117e-11 2.21439e-09 -1.218e-09 2.6557700000000003e-11 1.2823099999999999e-09 -7.05387e-10 2.1502100000000004e-11 7.730909999999999 5.47488 0.417314 1.2823e-09 -7.05386e-10 2.15124e-11 2.90554 0.965183 0.102902 1.2823e-09 -7.053849999999999e-10 2.15074e-11 10.278600000000003 0.731801 0.0259123 1.2823e-09 -7.053849999999999e-10 2.15262e-11 2.22167 -0.733487 -0.20892000000000002 -2.0732e-14 4.942389999999999e-14 -1.28682e-13 -76.8228 22.1402 -0.988391 10.891 -4.700729999999999 -19.4833 0.580856 21.131499999999996 -3.11375 1.3782e-09 1.38661e-09 1.18452e-09 2.4018e-09 2.38735e-09 2.0222100000000006e-09 1.37819e-09 1.38661e-09 1.18454e-09 -7.730909999999999 5.47488 -0.417314 1.3782e-09 1.3866e-09 1.18452e-09 -2.90554 0.965183 -0.102902 1.37819e-09 1.3866e-09 1.18453e-09 -10.278600000000003 0.731801 -0.0259123 1.37821e-09 1.3866e-09 1.18452e-09 -2.22167 -0.733487 0.20892000000000002 -2.03217e-16 0.0 -3.88251e-19 5.91563 -13.986200000000002 -0.9371940000000001 -0.319317 40.8775 0.9716169999999997 -12.8997 -16.8591 -26.3116 2.03217e-16 0.0 3.88251e-19 19.5212 -47.7252 1.68894 0.527171 45.0257 -0.333565 0.8877350000000002 -2.3758 0.706306
-17.3712 80.6581 -208.051 -8.871399999999998 -17.5841 6.8704 3.95722 5.90011 5.04997 1.14023 -5.9862 1.48013 -8.0488 18.115 -12.0449 13.2489 -19.8361 -21.4355 -0.0 0.0 0.0 -0.0 0.0 0.0 8.5851e-14 5.43839e-14 -8.56715e-15 74.4293 30.9637 -0.7850619999999999 -10.135600000000002 -4.22434 18.0558 -0.128674 10.179899999999998 1.44606 -1.19072e-10 5.7894700000000005e-11 -3.7665e-10 -2.10034e-10 1.00885e-10 -6.503750000000001e-10 -1.19069e-10 5.78944e-11 -3.76658e-10 7.730909999999999 5.47488 0.417314 -1.19074e-10 5.7895100000000004e-11 -3.7664900000000003e-10 2.90554 0.965183 0.102902 -1.19071e-10 5.789549999999999e-11 -3.7665600000000004e-10 10.278600000000003 0.731801 0.0259123 -1.19071e-10 5.789620000000001e-11 -3.7663899999999994e-10 2.22167 -0.733487 -0.20892000000000002 8.575470000000001e-14 5.4387699999999994e-14 -8.6514e-15 -76.5072 23.0642 -1.1873 11.1511 -4.87097 -19.9785 0.542155 20.4519 -3.0043699999999998 -7.465220000000001e-11 3.37284e-10 4.55057e-10 -1.17388e-10 5.92963e-10 7.886760000000001e-10 -7.466840000000002e-11 3.3727800000000003e-10 4.55071e-10 -7.730909999999999 5.47488 -0.417314 -7.46567e-11 3.37269e-10 4.5505899999999997e-10 -2.90554 0.965183 -0.102902 -7.466269999999999e-11 3.37268e-10 4.5506399999999996e-10 -10.278600000000003 0.731801 -0.0259123 -7.46449e-11 3.3727e-10 4.55055e-10 -2.22167 -0.733487 0.20892000000000002 -2.03217e-16 0.0 -3.88251e-19 5.92562 -13.953700000000001 -1.05464 -0.319341 40.9622 0.984657 -13.234500000000002 -16.9834 -26.8305 2.03217e-16 0.0 3.88251e-19 19.5028 -47.7258 1.69724 0.5248020000000001 44.9261 -0.32671199999999995 0.8421370000000001 -2.23696 0.395899
-17.4684 80.6394 -208.138 -8.842000000000002 -17.3814 6.8198 4.001730000000001 5.7193 4.73503 1.1163899999999998 -5.94884 1.38673 -8.12236 18.2591 -11.945300000000001 13.2759 -19.935200000000002 -21.2449 -0.0 0.0 0.0 -0.0 0.0 0.0 2.9753e-13 3.9415e-14 3.5428499999999994e-13 74.755 30.915700000000005 -1.79515 -10.3701 -4.36914 18.497700000000002 -0.114413 9.604939999999997 1.36279 -3.73081e-09 2.12592e-09 5.3294500000000004e-11 -6.44355e-09 3.6705e-09 1.2480500000000002e-10 -3.73081e-09 2.12592e-09 5.32876e-11 7.730909999999999 5.47488 0.417314 -3.73081e-09 2.12592e-09 5.32971e-11 2.90554 0.965183 0.102902 -3.7308e-09 2.12592e-09 5.3292e-11 10.278600000000003 0.731801 0.0259123 -3.73081e-09 2.12593e-09 5.33011e-11 2.22167 -0.733487 -0.20892000000000002 2.97394e-13 3.9414e-14 3.54203e-13 -76.2184 23.903299999999998 -1.33443 11.4178 -5.04868 -20.4885 0.509182 19.8542 -2.90889 -3.33219e-09 -2.42827e-09 -1.77168e-09 -5.77759e-09 -4.15248e-09 -3.0012e-09 -3.3322e-09 -2.42827e-09 -1.7716700000000001e-09 -7.730909999999999 5.47488 -0.417314 -3.3322e-09 -2.4282800000000002e-09 -1.77168e-09 -2.90554 0.965183 -0.102902 -3.33221e-09 -2.4282800000000002e-09 -1.77168e-09 -10.278600000000003 0.731801 -0.0259123 -3.33218e-09 -2.4282800000000002e-09 -1.77169e-09 -2.22167 -0.733487 0.20892000000000002 -2.03217e-16 0.0 -3.88251e-19 5.97678 -13.9489 -1.23382 -0.319079 41.0223 0.995637 -13.5446 -16.9675 -27.4112 2.03217e-16 0.0 3.88251e-19 19.4447 -47.7837 1.51309 0.5223449999999998 44.81680000000001 -0.3190450000000001 0.808693 -2.01968 0.152606
-17.5899 80.603 -208.252 -8.830000000000002 -17.231200000000005 6.7872 4.01929 5.64758 4.44356 1.05179 -5.94361 1.29927 -7.9271 18.2335 -11.9521 12.7969 -19.9545 -21.3261 -0.0 0.0 0.0 -0.0 0.0 0.0 2.6448200000000004e-13 2.40655e-14 6.52234e-13 75.1047 30.667700000000004 -2.72211 -10.6502 -4.5462 19.0262 -0.102723 9.097529999999999 1.28956 -4.57709e-09 3.04691e-09 7.47841e-10 -7.89998e-09 5.26152e-09 1.33224e-09 -4.57709e-09 3.04692e-09 7.47834e-10 7.730909999999999 5.47488 0.417314 -4.57709e-09 3.04692e-09 7.47844e-10 2.90554 0.965183 0.102902 -4.577080000000001e-09 3.04692e-09 7.47841e-10 10.278600000000003 0.731801 0.0259123 -4.57709e-09 3.04692e-09 7.4785e-10 2.22167 -0.733487 -0.20892000000000002 2.64338e-13 2.40639e-14 6.520879999999999e-13 -75.8771 24.5725 -1.58444 11.6754 -5.22353 -20.9834 0.481781 19.3367 -2.82687 -4.49874e-09 -2.93631e-09 -1.91568e-09 -7.79491e-09 -5.01477e-09 -3.23202e-09 -4.49875e-09 -2.93631e-09 -1.91568e-09 -7.730909999999999 5.47488 -0.417314 -4.49875e-09 -2.93631e-09 -1.91569e-09 -2.90554 0.965183 -0.102902 -4.49876e-09 -2.93631e-09 -1.91569e-09 -10.278600000000003 0.731801 -0.0259123 -4.49874e-09 -2.93631e-09 -1.9157e-09 -2.22167 -0.733487 0.20892000000000002 -2.03217e-16 0.0 -3.88251e-19 5.93858 -13.9734 -1.54846 -0.32089 41.1109 0.998403 -13.6674 -16.8027 -27.7569 2.03217e-16 0.0 3.88251e-19 19.4304 -47.8292 1.51196 0.519443 44.7065 -0.313533 0.757926 -1.8672100000000003 -0.229066
-17.6778 80.5724 -208.353 -8.6315 -16.9758 6.6894 4.01166 5.68514 4.17534 0.946279 -5.9704999999999995 1.21773 -7.46324 18.0384 -12.0653 11.811899999999998 -19.8935 -21.6789 -0.0 0.0 0.0 -0.0 0.0 0.0 -1.32935e-14 8.33518e-15 8.852800000000001e-13 75.4684 30.2218 -3.56107 -10.974099999999998 -4.75465 19.641700000000004 -0.0930742 8.65766 1.22623 -2.65791e-09 2.82087e-09 1.7069899999999997e-09 -4.57931e-09 4.87394e-09 2.97193e-09 -2.65792e-09 2.82087e-09 1.70698e-09 7.730909999999999 5.47488 0.417314 -2.65792e-09 2.82087e-09 1.7069899999999997e-09 2.90554 0.965183 0.102902 -2.65791e-09 2.82087e-09 1.7069899999999997e-09 10.278600000000003 0.731801 0.0259123 -2.65792e-09 2.82087e-09 1.70701e-09 2.22167 -0.733487 -0.20892000000000002 -1.34125e-14 8.33738e-15 8.850050000000001e-13 -75.4817 25.0713 -1.9378899999999997 11.9242 -5.39559 -21.463400000000004 0.459205 18.8994 -2.75795 -3.57431e-09 -1.18682e-09 2.3047100000000003e-11 -6.169369999999999e-09 -1.9938900000000004e-09 9.62352e-11 -3.57432e-09 -1.18683e-09 2.3058499999999996e-11 -7.730909999999999 5.47488 -0.417314 -3.57431e-09 -1.18683e-09 2.30511e-11 -2.90554 0.965183 -0.102902 -3.57432e-09 -1.18683e-09 2.3045e-11 -10.278600000000003 0.731801 -0.0259123 -3.57431e-09 -1.18682e-09 2.30307e-11 -2.22167 -0.733487 0.20892000000000002 -2.03217e-16 0.0 -3.88251e-19 5.81034 -14.026699999999998 -1.99872 -0.32473100000000005 41.228 0.992928 -13.601800000000003 -16.491200000000003 -27.868099999999995 2.03217e-16 0.0 3.88251e-19 19.4605 -47.8625 1.69433 0.516078 44.5955 -0.31016499999999997 0.689644 -1.7794899999999998 -0.749128
